<?xml version="1.0" encoding="UTF-8" standalone="no"?>
<!-- Created with Inkscape (http://www.inkscape.org/) -->

<svg
   width="210mm"
   height="210mm"
   viewBox="0 0 210 210"
   version="1.1"
   id="svg1"
   xml:space="preserve"
   inkscape:version="1.3 (0e150ed, 2023-07-21)"
   sodipodi:docname="getleidinhawaiilogo.svg"
   xmlns:inkscape="http://www.inkscape.org/namespaces/inkscape"
   xmlns:sodipodi="http://sodipodi.sourceforge.net/DTD/sodipodi-0.dtd"
   xmlns="http://www.w3.org/2000/svg"
   xmlns:svg="http://www.w3.org/2000/svg"><sodipodi:namedview
     id="namedview1"
     pagecolor="#505050"
     bordercolor="#ffffff"
     borderopacity="1"
     inkscape:showpageshadow="0"
     inkscape:pageopacity="0"
     inkscape:pagecheckerboard="1"
     inkscape:deskcolor="#d1d1d1"
     inkscape:document-units="mm"
     inkscape:zoom="0.35355339"
     inkscape:cx="455.37676"
     inkscape:cy="425.67828"
     inkscape:window-width="1680"
     inkscape:window-height="1050"
     inkscape:window-x="0"
     inkscape:window-y="0"
     inkscape:window-maximized="0"
     inkscape:current-layer="layer1" /><defs
     id="defs1"><rect
       x="183"
       y="579"
       width="319"
       height="139"
       id="rect3" /><rect
       x="121.07918"
       y="319.5145"
       width="739.92834"
       height="810.55786"
       id="rect2" /></defs><g
     inkscape:label="Layer 1"
     inkscape:groupmode="layer"
     id="layer1"><circle
       style="fill:#f9f9f9;fill-opacity:1;stroke:none;stroke-width:1.89796;stroke-linecap:square;stroke-linejoin:round;stroke-dasharray:none;stroke-dashoffset:28.0556;stroke-opacity:1"
       id="path3"
       cx="105"
       cy="105"
       r="103.33659" /><path
       style="fill:#800080;fill-opacity:1;stroke:#800080;stroke-width:0.453669;stroke-opacity:1"
       d="m 164.1087,98.632524 c 0.31899,-0.838999 -0.46728,-2.654954 -1.61392,-3.727514 -0.43964,-0.411219 -0.73939,-0.804915 -0.66607,-0.87485 0.0734,-0.06994 0.52935,-0.162171 1.01347,-0.205017 1.79602,-0.158814 3.01969,-0.630357 4.16621,-1.605589 0.63009,-0.53595 0.55863,-0.761041 -0.40836,-1.286461 -0.90887,-0.49381 -1.692,-0.7393 -2.35841,-0.7393 -0.3181,0 -0.76138,-0.0696 -0.98507,-0.15454 l -0.40667,-0.154551 0.86161,-0.814851 c 0.49487,-0.468063 1.04925,-1.202651 1.30246,-1.725912 0.24244,-0.501061 0.50115,-1.036093 0.57491,-1.188944 0.16663,-0.345245 0.17538,-0.922608 0.0149,-0.921802 -0.066,3.13e-4 -0.33609,0.129431 -0.60016,0.28669 -0.26408,0.157326 -0.80422,0.378008 -1.20035,0.490386 -0.3961,0.112377 -0.94136,0.271393 -1.21167,0.353469 -0.27033,0.08191 -0.64419,0.149326 -0.83079,0.149326 -0.18663,0 -0.37806,0.06277 -0.42542,0.139478 -0.0473,0.07665 -0.2857,0.18059 -0.52958,0.231078 -0.63702,0.131646 -2.71372,1.55151 -3.6072,2.466184 l -0.76304,0.781115 0.9231,0.633691 c 1.16972,0.802969 1.24679,1.159616 0.41476,1.919347 -0.33658,0.307346 -0.81002,0.680621 -1.05209,0.829499 -0.50585,0.31115 -0.52703,0.434807 -0.20599,1.203121 0.55753,1.334342 1.23916,1.797078 3.95914,2.687549 1.64287,0.537863 2.0048,0.692146 2.89126,1.232415 l 0.60274,0.367367 z m -12.63528,-0.74608 c 0.21232,-0.396729 0.21694,-2.840735 0.006,-2.971352 -0.0882,-0.05438 -0.1601,-0.206527 -0.1601,-0.338016 0,-0.131467 -0.17778,-0.500736 -0.39506,-0.82048 -0.54086,-0.795941 -0.3251,-1.072594 0.58581,-0.751205 1.05157,0.371037 2.58132,0.291378 4.02547,-0.20956 0.69576,-0.241371 1.30186,-0.534786 1.34685,-0.652042 0.1382,-0.360105 -1.25849,-1.612415 -2.48223,-2.225574 -1.09999,-0.551201 -1.49639,-1.004784 -0.8781,-1.004784 0.48533,0 1.87106,-1.051647 2.84004,-2.155348 1.02762,-1.170481 1.03842,-1.549697 0.0321,-1.129236 -0.43134,0.180198 -1.18746,0.243722 -2.90162,0.243722 -1.27503,0 -2.48367,0.06456 -2.68585,0.143384 -0.20221,0.07878 -0.69174,0.237824 -1.08785,0.353257 -0.39611,0.115286 -1.08029,0.414978 -1.52042,0.665638 -0.44013,0.250681 -0.92626,0.496215 -1.0803,0.545684 -0.34861,0.111785 -0.36046,0.426751 -0.0264,0.703918 0.39746,0.329882 1.2128,1.57775 1.12436,1.720865 -0.11401,0.184484 -1.70811,0.943902 -2.53828,1.209219 -0.39181,0.125168 -0.37657,1.44136 0.0264,2.270109 0.39927,0.821341 0.87205,1.2413 2.85271,2.534117 0.90128,0.588272 1.83754,1.318799 2.08057,1.623425 0.50982,0.63894 0.60956,0.668055 0.83639,0.244259 z m 25.45245,-3.094561 c 1.3e-4,-0.0677 -0.18095,-0.410223 -0.40242,-0.761041 -0.43354,-0.686786 -1.41601,-1.474055 -2.31767,-1.857166 -1.67041,-0.709747 -2.03916,-1.026246 -1.35023,-1.158944 0.38759,-0.07475 1.58305,-0.872277 2.28455,-1.524353 0.56756,-0.527546 1.53487,-2.256423 1.39191,-2.487746 -0.0468,-0.07575 -0.44537,-0.224062 -0.88577,-0.329714 -0.44038,-0.10563 -0.80072,-0.279708 -0.80072,-0.386826 0,-0.111919 0.44593,-0.283366 1.04874,-0.403174 0.97483,-0.193771 1.06469,-0.187404 1.27526,0.09075 0.1391,0.183723 0.22948,0.700606 0.2341,1.3394 0.006,0.572159 0.065,1.130735 0.13519,1.241288 0.0702,0.110442 0.5534,0.3119 1.07379,0.447474 0.77781,0.202588 1.08932,0.212782 1.75046,0.05718 0.77734,-0.182816 1.81549,-0.679491 2.6448,-1.265235 0.70657,-0.499035 2.66756,-1.441023 2.99987,-1.441023 0.17704,0 0.40245,-0.09701 0.50092,-0.215781 0.20764,-0.250167 -0.0769,-0.544533 -0.86006,-0.890091 -0.26409,-0.116417 -0.60519,-0.275466 -0.75804,-0.353201 -0.15286,-0.07766 -1.07111,-0.141325 -2.04058,-0.141325 -1.95404,0 -2.03249,-0.05237 -1.38898,-0.92442 0.60503,-0.820066 1.22678,-2.514983 1.22678,-3.344258 0,-0.51817 -0.29017,-1.49291 -0.44443,-1.49291 -0.2064,0 -1.27671,0.384275 -1.91766,0.68851 -0.37485,0.177971 -0.9834,0.602147 -1.35228,0.942693 -0.36885,0.340545 -0.75417,0.587142 -0.85618,0.54799 -0.10205,-0.03928 -0.23426,-0.383458 -0.29386,-0.765114 -0.14059,-0.900217 -0.8988,-2.444006 -1.59847,-3.254595 l -0.55257,-0.640181 -0.17332,0.45055 c -0.0954,0.247795 -0.17333,0.594349 -0.17333,0.770116 0,0.175733 -0.18578,0.72924 -0.41301,1.22992 -0.60284,1.328713 -0.67098,1.501235 -0.80206,2.030661 -0.17759,0.717603 -0.15322,3.562355 0.0389,4.521475 0.20202,1.008902 0.1132,1.119746 -1.04311,1.30254 -0.44472,0.07038 -0.9226,0.222405 -1.0619,0.338017 -0.18167,0.150825 -0.30216,0.161242 -0.42658,0.03704 -0.12442,-0.124406 -0.068,-0.390607 0.19936,-0.943152 0.21038,-0.434571 0.40237,-1.180439 0.44089,-1.712685 0.0677,-0.937591 -0.234,-2.662798 -0.46587,-2.662798 -0.0668,0 -0.26832,0.237713 -0.44789,0.528229 -0.17945,0.290517 -0.65728,0.765819 -1.06159,1.056179 -1.48427,1.065936 -2.85669,2.595212 -3.4615,3.857123 -0.78511,1.638185 -0.989,2.197342 -0.89267,2.448326 0.045,0.117536 0.50334,0.306596 1.01848,0.420439 0.51513,0.113777 1.02826,0.233506 1.14027,0.2659 0.53842,0.155838 0.3754,1.131842 -0.39273,2.351412 l -0.38087,0.604721 0.50362,0.459962 c 0.27697,0.25302 0.80131,0.613024 1.1652,0.800025 0.62604,0.32178 0.85733,0.33767 4.30234,0.295697 2.00241,-0.02451 3.64089,-0.09992 3.64103,-0.167576 z M 139.21921,93.38501 c 0.76647,-0.910892 0.92867,-1.51746 0.86412,-3.231219 -0.0322,-0.858257 -0.037,-1.56044 -0.009,-1.56044 0.0266,0 0.42538,0.198057 0.88589,0.440111 1.23288,0.648059 1.83001,0.829767 3.09707,0.942424 1.56493,0.139099 2.30192,-0.01164 2.3,-0.469539 -0.001,-0.545394 -0.84269,-1.87818 -1.67311,-2.653521 -0.41252,-0.385125 -0.69061,-0.751653 -0.61799,-0.81446 0.0726,-0.06289 0.5641,-0.210097 1.09227,-0.327252 1.41848,-0.314642 3.92109,-1.548243 3.92109,-1.932831 0,-0.08034 -0.31984,-0.146349 -0.71076,-0.146349 -0.39093,0 -0.75528,-0.07217 -0.80967,-0.160135 -0.0544,-0.08806 -0.29873,-0.160112 -0.54294,-0.160112 -0.2442,0 -0.49335,-0.04946 -0.5537,-0.109771 -0.14189,-0.141884 -1.12803,-0.509151 -1.94421,-0.724193 -1.02072,-0.268932 -3.42306,-0.333608 -4.64129,-0.124787 -1.64719,0.282102 -1.56664,0.223625 -1.26031,0.915223 0.7282,1.643948 0.46283,2.090906 -1.30041,2.190416 -0.7042,0.03984 -1.3334,0.07721 -1.39823,0.08303 -0.23817,0.02171 -0.60233,1.192088 -0.60233,1.935751 0,0.834769 0.31743,1.549015 1.20712,2.716329 0.88113,1.156135 1.59282,2.278165 1.82722,2.880816 0.32565,0.837287 0.40362,0.865093 0.87034,0.310412 z m -9.77737,-7.770463 c 1.03215,-0.674589 2.023,-2.355978 2.02923,-3.443409 0.001,-0.231289 0.0978,-0.499651 0.21432,-0.596363 0.1644,-0.136334 0.32281,-0.01857 0.70582,0.524806 0.79248,1.124312 2.79388,2.362109 4.16368,2.575082 l 0.68019,0.10563 0.0168,-0.534216 c 0.0472,-1.630375 -0.14338,-2.548585 -0.70125,-3.375667 -0.27624,-0.409619 -0.27807,-0.448167 -0.0256,-0.545013 0.14934,-0.05729 0.50171,-0.02104 0.78294,0.08068 0.61281,0.221588 2.4174,0.243498 3.06547,0.03715 0.2552,-0.08124 0.73407,-0.192518 1.06417,-0.247291 0.33011,-0.05483 0.60018,-0.187438 0.60018,-0.294702 0,-0.107308 -0.27007,-0.312683 -0.60018,-0.45647 -0.3301,-0.143753 -1.14032,-0.703526 -1.8005,-1.24384 -1.55165,-1.269945 -3.89746,-2.408255 -4.97276,-2.413078 -0.21381,-8.73e-4 -0.73921,-0.108092 -1.16756,-0.237992 -0.42834,-0.129811 -0.84245,-0.196938 -0.92026,-0.148957 -0.0777,0.04823 -0.14133,0.536879 -0.14133,1.086234 0,0.563488 -0.0836,1.082541 -0.19206,1.190902 -0.22201,0.222036 -1.59111,0.260248 -1.8165,0.05046 -0.0836,-0.07766 -0.48026,-0.188098 -0.88141,-0.245254 -0.71858,-0.102386 -0.73654,-0.09366 -1.21384,0.581469 -0.51657,0.730784 -0.96228,2.066938 -0.7851,2.353628 0.0589,0.09522 0.1709,0.515014 0.24919,0.932902 0.0782,0.417877 0.22566,1.083851 0.32761,1.479975 0.10183,0.396102 0.23166,1.254682 0.2882,1.907945 0.0565,0.65325 0.17481,1.206902 0.26286,1.230334 0.0881,0.0235 0.43412,-0.136503 0.76913,-0.355495 z m 56.21563,-6.042795 c 1.11672,-0.413199 1.69775,-0.960395 2.74117,-2.581616 0.39661,-0.616191 1.12426,-1.532555 1.61706,-2.036402 0.49281,-0.503813 0.86411,-0.939381 0.82513,-0.967848 -0.93613,-0.684235 -2.5143,-0.51432 -4.45484,0.479667 -0.56266,0.2882 -1.07011,0.524021 -1.1277,0.524021 -0.0576,0 -0.0764,-0.666175 -0.0421,-1.480411 0.0519,-1.225433 0.003,-1.636596 -0.27919,-2.387387 -0.39897,-1.058612 -0.88575,-1.733762 -1.25004,-1.733762 -0.36374,0 -1.71587,1.447308 -2.04059,2.184223 -0.70917,1.609495 -0.78055,1.647171 -1.32249,0.698144 -0.31513,-0.551873 -1.86578,-1.922105 -2.17515,-1.922105 -0.0596,0 -0.39391,-0.180008 -0.7425,-0.400085 -0.75041,-0.473729 -1.04078,-0.513331 -0.88004,-0.120132 0.29306,0.717087 0.54907,2.134909 0.55425,3.069479 0.008,1.5929 0.59867,3.118764 1.90682,4.932704 0.75502,1.047003 0.96332,1.165647 1.31099,0.746729 0.31991,-0.385482 1.53624,-1.186817 1.80144,-1.186817 0.23024,0 1.01189,1.093171 1.4018,1.960525 0.1765,0.392499 0.27734,0.438063 0.9324,0.421032 0.40398,-0.01164 0.9546,-0.100483 1.22359,-0.200048 z m -62.17299,-2.230597 c 1.22612,-0.750612 1.88397,-1.554487 2.48062,-3.031138 0.16885,-0.417821 0.37938,-0.7599 0.46792,-0.760224 0.0885,-3.58e-4 0.26431,0.23346 0.39064,0.519535 0.53299,1.207126 3.18588,3.160859 4.29198,3.160859 0.58834,0 0.64805,-2.307202 0.094,-3.633196 -0.11903,-0.284721 -0.21631,-0.591999 -0.21631,-0.682848 0,-0.20195 0.58693,-0.220827 0.7093,-0.02283 0.0933,0.151195 0.78398,0.29798 2.09139,0.444453 0.84314,0.09455 2.96092,-0.22621 2.96092,-0.448335 0,-0.0715 -0.2018,-0.234625 -0.44849,-0.362187 -0.24669,-0.127584 -0.87685,-0.657077 -1.40042,-1.176657 -2.03142,-2.016155 -3.80143,-3.066318 -5.99324,-3.555866 -0.30811,-0.06885 -0.68624,-0.177784 -0.84026,-0.24229 -0.22605,-0.09451 -0.28007,-0.03483 -0.28007,0.309965 0,0.234952 -0.11641,0.783584 -0.25908,1.21918 -0.33073,1.011279 -0.6511,1.101591 -1.98472,0.559697 -0.55674,-0.22621 -1.17073,-0.411297 -1.36442,-0.411297 -0.42075,0 -1.61596,1.236423 -1.76355,1.824366 -0.0556,0.221621 -0.0532,1.108098 0.006,1.970024 0.14413,2.117706 0.18226,4.077783 0.0849,4.358352 -0.1261,0.36335 0.34671,0.344126 0.97347,-0.03961 z m 58.08292,-7.288364 c 0,-0.482755 0.41826,-1.465428 0.70767,-1.66259 0.32252,-0.219743 0.74105,-0.123484 1.89453,0.436189 l 1.15165,0.558687 0.56374,-0.451399 c 0.3101,-0.248269 0.76364,-0.841797 1.00792,-1.318899 0.41283,-0.806316 0.4369,-0.957769 0.3415,-2.147856 -0.14655,-1.827151 -0.14433,-3.26748 0.008,-3.961097 0.12349,-0.569275 0.10932,-0.600158 -0.27336,-0.600158 -0.94683,0 -2.76945,1.780456 -3.24634,3.171221 -0.27349,0.797632 -0.57121,0.802671 -0.9463,0.01614 -0.64973,-1.362564 -2.05343,-2.61531 -3.50383,-3.127046 -0.60177,-0.212323 -0.67726,-0.208457 -0.86196,0.04423 -0.24472,0.334693 -0.281,3.189054 -0.0422,3.336524 0.0881,0.05434 0.16011,0.274706 0.16011,0.489584 0,0.412353 -0.26762,0.500218 -0.76237,0.250255 -0.72405,-0.365786 -1.5561,-0.499777 -3.1034,-0.499777 -0.92535,0 -1.72075,0.03831 -1.76756,0.08522 -0.0468,0.04691 0.82343,0.983672 1.93387,2.081899 1.71736,1.698489 2.22224,2.098722 3.37938,2.679014 1.60043,0.802565 2.34481,1.075648 2.93215,1.075648 0.3646,0 0.42879,-0.06826 0.42879,-0.455553 z m -54.95651,-1.424979 c 0.45948,-1.143228 0.58236,-1.835813 0.50245,-2.83178 -0.0938,-1.170418 0.0207,-1.281596 0.73871,-0.716709 0.68174,0.536255 2.1676,1.00241 3.5015,1.098459 0.93336,0.06734 1.24045,0.03982 1.24035,-0.110643 -7e-5,-0.110061 -0.0688,-0.200051 -0.15251,-0.200051 -0.2251,0 -1.15346,-1.364853 -1.89251,-2.782321 -0.94023,-1.803316 -5.30079,-4.801434 -5.32249,-3.659465 -0.006,0.328738 -0.76225,1.459004 -1.12873,1.68749 -0.19449,0.121186 -0.54653,-0.03924 -1.50638,-0.686998 l -1.25259,-0.845248 -0.49418,0.27047 c -0.64881,0.355119 -1.26818,0.903815 -1.61128,1.427474 -0.29756,0.454115 -0.87257,2.767088 -0.87934,3.536926 -0.006,0.484336 -0.21449,1.239836 -0.58886,2.11616 -0.28979,0.678258 -0.28353,0.695987 0.24512,0.695987 1.06347,0 2.53248,-0.902448 3.5099,-2.15625 0.73611,-0.944232 1.15094,-1.127705 1.15094,-0.509076 0,0.839079 1.30737,2.88075 2.30214,3.595114 0.89502,0.642779 1.39897,0.664489 1.63771,0.07047 z m 50.45178,-5.777348 c 0.16626,-0.110173 0.17555,-0.220346 0.0401,-0.473526 -0.25652,-0.479321 -0.22147,-1.714906 0.0553,-1.94447 0.16625,-0.137953 0.64071,-0.1604 1.6793,-0.07908 1.61246,0.126179 1.76502,0.0681 2.19306,-0.833887 0.45861,-0.966426 0.3401,-2.352018 -0.32386,-3.786965 -0.31866,-0.688619 -0.57936,-1.35056 -0.57936,-1.470967 0,-0.120377 -0.0721,-0.263453 -0.1601,-0.317862 -0.0881,-0.05437 -0.16031,-0.256689 -0.16088,-0.449562 -0.001,-0.619506 -0.3277,-1.550983 -0.54305,-1.550983 -0.11494,0 -0.43253,0.213801 -0.70597,0.475121 -0.87103,0.832403 -1.46461,2.205343 -1.46844,3.396511 -0.002,0.779574 -0.2629,1.156413 -0.50286,0.727667 -0.18679,-0.333837 -1.49573,-1.245483 -2.38035,-1.657917 -1.08253,-0.504699 -1.79093,-0.70075 -2.53204,-0.70075 -0.66663,0 -0.66884,0.0017 -0.66643,0.600157 0.003,0.880667 0.5707,2.285926 1.30057,3.222488 0.16365,0.209913 0.29744,0.434361 0.29744,0.49876 0,0.06437 -0.50323,0.08101 -1.11828,0.03712 -1.24567,-0.08906 -2.35512,0.13652 -4.04313,0.822302 -0.56964,0.231422 -0.55474,0.338824 0.08,0.577537 0.86225,0.324283 1.28224,0.530581 2.12055,1.041599 1.06812,0.65109 2.10131,1.128867 2.88083,1.332146 1.79331,0.467676 4.20942,0.752306 4.53778,0.534608 z m -53.1405,-3.345198 c 0.57816,-0.813816 0.82943,-1.653189 0.82943,-2.770859 0,-0.600222 0.0618,-1.129352 0.13687,-1.175871 0.0752,-0.04646 0.30929,0.100527 0.52015,0.326493 0.70657,0.757548 2.59991,1.558924 4.02436,1.703339 0.83837,0.08504 0.88155,0.04066 0.49653,-0.508942 -0.14506,-0.207073 -0.68063,-1.213372 -1.19019,-2.236226 -0.76954,-1.544692 -1.11121,-2.039031 -2.01695,-2.918132 -1.0496,-1.018739 -2.43253,-2.062474 -2.73279,-2.062474 -0.0795,0 -0.3712,0.350261 -0.64861,0.778362 -0.9135,1.409746 -1.20076,1.440018 -2.53621,0.267196 -0.99011,-0.869564 -1.40632,-0.911696 -2.38118,-0.240959 -0.88094,0.606099 -1.40189,1.308961 -1.65739,2.236243 -0.1091,0.396105 -0.26559,0.941371 -0.34766,1.211694 -0.0819,0.270324 -0.14934,0.613391 -0.14934,0.76239 0,0.148943 -0.0612,0.395942 -0.13594,0.548782 -0.0748,0.152811 -0.32671,0.663008 -0.55999,1.133676 -0.23328,0.470686 -0.38932,0.912081 -0.3468,0.980903 0.13652,0.220819 1.57986,-0.0081 2.31354,-0.36827 0.39087,-0.191452 1.13954,-0.762195 1.66365,-1.268347 0.52411,-0.506136 1.00681,-0.920247 1.07266,-0.920247 0.1737,0 0.31402,0.435717 0.31402,0.975511 0,0.258078 0.0642,0.594288 0.14245,0.747141 0.0784,0.152812 0.3065,0.62141 0.50691,1.041267 0.38526,0.807102 1.7352,2.197452 2.13359,2.197452 0.1298,0 0.37673,-0.198052 0.54868,-0.440122 z m 46.00574,-3.818159 c 0.0534,-0.05342 0.0562,-0.443512 0.006,-0.866868 -0.0502,-0.423343 -0.0428,-0.962718 0.0167,-1.198577 l 0.10776,-0.428828 1.60782,0.05518 c 1.51517,0.05197 1.62488,0.03405 1.90397,-0.310537 0.1629,-0.201134 0.40362,-0.741218 0.53497,-1.200172 0.29493,-1.030374 0.19476,-1.494686 -0.81975,-3.800329 -0.59019,-1.341328 -0.68008,-1.610526 -0.68228,-2.043031 -0.003,-0.646986 -0.17146,-1.152814 -0.38327,-1.152814 -0.21683,0 -1.3613,1.16911 -1.72341,1.760508 -0.24696,0.403335 -0.39682,0.98429 -0.55732,2.160598 -0.10754,0.788205 -0.32406,1.053157 -0.58549,0.716547 -0.29195,-0.375903 -1.57851,-1.347767 -2.06981,-1.563538 -1.3008,-0.571306 -2.68774,-0.903627 -3.15388,-0.755675 -0.70403,0.223448 -0.18114,2.15111 0.99209,3.656798 0.59567,0.764473 0.43238,1.034199 -0.44976,0.743076 -0.48253,-0.159262 -0.82327,-0.156511 -1.73524,0.01451 -1.31839,0.246749 -3.05525,0.837161 -3.05525,1.038585 0,0.07632 0.39163,0.276814 0.87024,0.445352 0.47861,0.16858 1.36159,0.621443 1.96214,1.006397 0.6006,0.384955 1.18485,0.699927 1.2984,0.699927 0.11365,0 0.27484,0.05955 0.35848,0.132151 0.17294,0.150393 0.95951,0.385517 2.48291,0.742155 1.0454,0.244748 2.88922,0.333979 3.07438,0.148774 z m -47.583,-5.177884 c 0.45235,-0.484254 0.61427,-0.773877 1.10384,-1.974533 0.10049,-0.246219 0.18263,-0.768345 0.18263,-1.160319 0,-0.817235 0.20317,-0.904481 0.68366,-0.293608 0.66739,0.848408 3.23277,2.141653 4.24837,2.141653 0.42614,0 0.43218,-0.07277 0.051,-0.615487 -0.16402,-0.233647 -0.37858,-0.676868 -0.47661,-0.984968 -0.6884,-2.163195 -0.93252,-2.754608 -1.50539,-3.647118 -0.66746,-1.039797 -2.7158,-3.074744 -3.09499,-3.074744 -0.11827,0 -0.29815,0.162033 -0.39983,0.360087 -0.29641,0.577343 -1.14549,1.400388 -1.44464,1.400388 -0.15138,0 -0.69528,-0.432121 -1.20883,-0.960264 -1.08728,-1.118203 -1.37094,-1.174905 -2.62442,-0.524595 -0.90428,0.469154 -1.61842,1.308218 -1.92165,2.257704 -0.10317,0.323137 -0.25093,0.655941 -0.32832,0.739574 -0.0773,0.08356 -0.14078,0.243537 -0.14078,0.35536 0,0.300984 -0.71372,1.803979 -1.18743,2.500547 -0.22713,0.334015 -0.41299,0.640098 -0.41299,0.680196 0,0.137486 1.92464,0.07293 2.20278,-0.07374 0.15286,-0.08067 0.53943,-0.259999 0.85909,-0.398622 0.31967,-0.138602 0.94242,-0.576777 1.38389,-0.973721 0.4415,-0.396927 0.88214,-0.721695 0.97926,-0.721695 0.10787,0 0.17741,0.357587 0.1789,0.920263 0.003,1.437194 0.67787,2.930393 1.8174,4.025634 l 0.56665,0.544669 z m 40.26518,-3.167332 -0.008,-1.240353 1.20036,0.0081 c 0.66015,0.0049 1.41964,0.0647 1.68771,0.133452 0.4626,0.118592 0.50939,0.08455 0.92026,-0.670287 0.54152,-0.99494 0.5994,-2.501485 0.1337,-3.482724 -0.16459,-0.346617 -0.42262,-0.918312 -0.57361,-1.270396 -0.15102,-0.352102 -0.34057,-0.765246 -0.42122,-0.918085 -0.0807,-0.15281 -0.14654,-0.399801 -0.14654,-0.548799 0,-0.148942 -0.0825,-0.528081 -0.18261,-0.842408 -0.10059,-0.314326 -0.20736,-0.664525 -0.2376,-0.778201 -0.0811,-0.304761 -0.91933,0.361201 -1.45406,1.155087 -0.61798,0.917537 -0.84126,1.629809 -0.84403,2.692615 -0.001,0.562676 -0.071,0.920247 -0.17889,0.920247 -0.097,0 -0.518,-0.306987 -0.93532,-0.682209 -0.66435,-0.597304 -1.58035,-1.139147 -2.64917,-1.567056 -0.17611,-0.07052 -0.77023,-0.172969 -1.32039,-0.227741 l -1.00027,-0.09955 v 0.714869 c 0,0.790885 0.45428,1.987912 1.05165,2.771132 0.6632,0.869468 0.56836,0.952276 -1.09938,0.960087 -1.32578,0.0065 -1.996,0.123761 -3.07313,0.538842 -0.17611,0.06793 -0.45212,0.165922 -0.61349,0.217964 -0.45851,0.147976 -0.24092,0.428537 0.53574,0.691101 0.39072,0.132 1.07216,0.467247 1.51436,0.744849 2.20726,1.385687 4.19817,2.019457 6.344,2.019457 h 1.35781 z m -7.28997,-6.923338 v -1.320917 l 1.68804,0.07504 1.68801,0.07504 0.31253,-0.438912 c 0.17184,-0.241394 0.31251,-0.549558 0.31251,-0.684824 0,-0.135219 0.0722,-0.290433 0.16013,-0.344842 0.0882,-0.05438 0.16011,-0.486513 0.16011,-0.960265 0,-0.473749 -0.0722,-0.905853 -0.16011,-0.960263 -0.0882,-0.05438 -0.16013,-0.21501 -0.16013,-0.356909 0,-0.14184 -0.22498,-0.719855 -0.49999,-1.284371 -0.51344,-1.053916 -0.72835,-1.721556 -0.91411,-2.839967 -0.0584,-0.352102 -0.19653,-0.640175 -0.3068,-0.640175 -0.31703,0 -1.47454,1.204608 -1.79518,1.868215 -0.1605,0.331915 -0.34241,1.109648 -0.40454,1.728299 -0.0621,0.618636 -0.17333,1.124787 -0.24701,1.124787 -0.0738,0 -0.45404,-0.27691 -0.84509,-0.615358 -1.47364,-1.275432 -4.70202,-2.39812 -4.96035,-1.724976 -0.25937,0.675883 0.33685,2.537352 1.12517,3.512946 0.48724,0.602997 0.48982,0.988793 0.006,0.819285 -0.70615,-0.247137 -3.37932,-0.04517 -3.5741,0.269968 -0.047,0.07632 -0.18077,0.138771 -0.29687,0.138771 -0.1161,0 -0.47792,0.111504 -0.80401,0.247735 -0.49051,0.204941 -0.55963,0.287878 -0.40008,0.480121 0.10607,0.127798 0.32555,0.232408 0.48769,0.232408 0.28047,0 1.36326,0.539905 2.2267,1.110279 1.49733,0.989146 3.42552,1.559793 5.80162,1.717005 l 1.40041,0.09262 z m -26.81298,1.001685 c -0.1443,-0.337481 -0.16477,-0.498485 -0.40671,-3.212352 -0.18002,-2.019344 -0.22615,-2.202616 -0.87144,-3.467187 -0.71031,-1.392077 -1.48295,-2.483542 -1.75718,-2.482266 -0.0882,3.87e-4 -0.37924,0.198455 -0.64715,0.440106 -0.62725,0.565854 -1.11298,0.839504 -1.49002,0.839504 -0.31102,0 -0.86331,-0.731151 -1.36009,-1.80051 -0.2578,-0.554896 -0.32954,-0.599982 -0.95146,-0.597755 -1.47482,0.0049 -2.68112,0.713271 -3.70507,2.174573 -0.42546,0.607159 -1.27653,1.618768 -1.89128,2.247991 -1.05218,1.076942 -1.09841,1.154425 -0.78831,1.320383 0.18112,0.09698 0.87636,0.17628 1.54481,0.17628 1.06266,0 1.36715,-0.07197 2.42266,-0.572873 1.23152,-0.58441 1.79117,-0.621748 1.58774,-0.10601 -0.0605,0.153292 -0.16756,0.635206 -0.23784,1.070924 -0.18683,1.157332 0.34986,3.137384 1.07454,3.964349 0.22597,0.257869 0.28428,0.244429 0.91957,-0.211814 0.9516,-0.683371 2.00147,-2.183431 2.00147,-2.859704 0,-0.528757 0.31183,-0.526063 0.60167,0.0049 0.5944,1.089593 1.76063,2.155529 3.31122,3.02645 0.70658,0.396863 0.79619,0.403075 0.64287,0.04453 z"
       id="path1" /><text
       xml:space="preserve"
       transform="matrix(0.43973017,0,0,0.43973017,-27.300137,-97.91183)"
       id="text1"
       style="font-size:130.667px;line-height:0.97;font-family:Lobster;-inkscape-font-specification:'Lobster, Normal';text-align:center;letter-spacing:8px;white-space:pre;shape-inside:url(#rect2);fill:#800080;fill-opacity:1;stroke:none;stroke-width:4.31622;stroke-linecap:square;stroke-linejoin:round;stroke-dasharray:17.265;stroke-dashoffset:28.0556"
       x="-252.04289"
       y="0"><tspan
         x="121.08008"
         y="422.08727"
         id="tspan4"><tspan
           style="text-align:start;text-anchor:start"
           id="tspan1">Get&#10;</tspan></tspan><tspan
         x="121.08008"
         y="548.83428"
         id="tspan6"><tspan
           style="text-align:start;text-anchor:start"
           id="tspan5">  Lei'd</tspan></tspan></text><text
       xml:space="preserve"
       transform="matrix(0.43973017,0,0,0.43973017,-35.789731,-91.400571)"
       id="text2"
       style="font-size:53.3333px;line-height:0.97;font-family:Lobster;-inkscape-font-specification:'Lobster, Normal';text-align:start;letter-spacing:8px;white-space:pre;shape-inside:url(#rect3);fill:#800080;fill-opacity:1;stroke:#800080;stroke-width:4.31622;stroke-linecap:square;stroke-linejoin:round;stroke-dasharray:none;stroke-dashoffset:28.0556;stroke-opacity:1"><tspan
         x="183"
         y="620.86664"
         id="tspan8"><tspan
           style="stroke:none"
           id="tspan7">In Hawaii</tspan></tspan></text></g></svg>
